{"title":"Yevadu (2014) Hindi Dubbed - 1CD - HDRip - x264 - MP3 -={SPARROW","uid":12044830,"size":729267236,"categoryP":"video","categoryS":"movies","magnet":"?xt=urn:btih:e9d95196fd2211f86a9773055a309aa0fae73da7&amp;dn=Yevadu+%282014%29+Hindi+Dubbed+-+1CD+-+HDRip+-+x264+-+MP3+-%3D%7BSPARROW&amp;tr=udp%3A%2F%2Ftracker.openbittorrent.com%3A80&amp;tr=udp%3A%2F%2Fopen.demonii.com%3A1337&amp;tr=udp%3A%2F%2Ftracker.coppersurfer.tk%3A6969&amp;tr=udp%3A%2F%2Fexodus.desync.com%3A6969","seeders":2,"leechers":2,"uploader":"SS132203","files":2,"time":1434873043,"description":"Yevadu (2014) Hindi Dubbed - 1CD - HDRip - x264 - MP3 -={SPARROW}=-\n &lt;a href=&quot;\nhttp://imgsparrow.co/image/av&quot; rel=&quot;nofollow&quot; target=&quot;_NEW&quot;&gt;\nhttp://imgsparrow.co/image/av&lt;/a&gt;\n &lt;a href=&quot;\nhttp://imgsparrow.co/image/QS&quot; rel=&quot;nofollow&quot; target=&quot;_NEW&quot;&gt;\nhttp://imgsparrow.co/image/QS&lt;/a&gt;\n\nInfo : - \n\nFormat                      : Matroska\nFormat version              : Version 2\nFile size                   : 695 MiB\nDuration                    : 2h 20mn\nOverall bit rate mode       : Variable\nOverall bit rate            : 692 Kbps\nEncoded date                : UTC 2015-06-21 04:04:13\nWriting application         : mkvmerge v7.7.0 ('Six Voices') 32bit built on Feb 28 2015 23:23:00\nWriting library             : libebml v1.3.1 + libmatroska v1.4.2\nDURATION                    : 02:20:27.703000000\n\nVideo\nID                          : 1\nFormat                      : AVC\nFormat/Info                 : Advanced Video Codec\nFormat profile              : &lt;a class=&quot;__cf_email__&quot; href=&quot;/cdn-cgi/l/email-protection&quot; data-cfemail=&quot;b6fedfd1def6fa829887&quot;&gt;[email&amp;#160;protected]&lt;/a&gt;&lt;script data-cfhash='f9e31' type=&quot;text/javascript&quot;&gt;\n/* &lt;![CDATA[ */!function(){try{var t=&quot;currentScript&quot;in document?document.currentScript:function(){for(var t=document.getElementsByTagName(&quot;script&quot;),e=t.length;e--;)if(t[e].getAttribute(&quot;data-cfhash&quot;))return t[e]}();if(t&amp;&amp;t.previousSibling){var e,r,n,i,c=t.previousSibling,a=c.getAttribute(&quot;data-cfemail&quot;);if(a){for(e=&quot;&quot;,r=parseInt(a.substr(0,2),16),n=2;a.length-n;n+=2)i=parseInt(a.substr(n,2),16)^r,e+=String.fromCharCode(i);e=document.createTextNode(e),c.parentNode.replaceChild(e,c)}t.parentNode.removeChild(t);}}catch(u){}}()/* ]]&gt; */&lt;/script&gt;\nFormat settings, CABAC      : Yes\nFormat settings, ReFrames   : 4 frames\nCodec ID                    : V_MPEG4/ISO/AVC\nDuration                    : 2h 20mn\nBit rate                    : 603 Kbps\nWidth                       : 640 pixels\nHeight                      : 272 pixels\nDisplay aspect ratio        : 2.35:1\nFrame rate mode             : Constant\nFrame rate                  : 20.000 fps\nColor space                 : YUV\nChroma subsampling          : 4:2:0\nBit depth                   : 8 bits\nScan type                   : Progressive\nBits/(Pixel*Frame)          : 0.173\nStream size                 : 594 MiB (85%)\nWriting library             : x264 core 146 r2538 121396c\nDefault                     : Yes\nForced                      : No\n\nAudio\nID                          : 2\nFormat                      : MPEG Audio\nFormat version              : Version 1\nFormat profile              : Layer 3\nMode                        : Joint stereo\nMode extension              : MS Stereo\nCodec ID                    : A_MPEG/L3\nCodec ID/Hint               : MP3\nDuration                    : 2h 20mn\nBit rate mode               : Variable\nBit rate                    : 87.3 Kbps\nNominal bit rate            : 128 Kbps\nChannel(s)                  : 2 channels\nSampling rate               : 44.1 KHz\nCompression mode            : Lossy\nStream size                 : 87.8 MiB (13%)\nWriting library             : LAME3.99r\nEncoding settings           : -m j -V 4 -q 2 -lowpass 17 --abr 128\nLanguage                    : Hindi\nDefault                     : Yes\nForced                      : No\n\nScreens : - \n &lt;a href=&quot;\nhttp://imgsparrow.co/image/ax&quot; rel=&quot;nofollow&quot; target=&quot;_NEW&quot;&gt;\nhttp://imgsparrow.co/image/ax&lt;/a&gt; &lt;a href=&quot;\nhttp://imgsparrow.co/image/aC&quot; rel=&quot;nofollow&quot; target=&quot;_NEW&quot;&gt;\nhttp://imgsparrow.co/image/aC&lt;/a&gt; &lt;a href=&quot;\nhttp://imgsparrow.co/image/a1&quot; rel=&quot;nofollow&quot; target=&quot;_NEW&quot;&gt;\nhttp://imgsparrow.co/image/a1&lt;/a&gt; &lt;a href=&quot;\nhttp://imgsparrow.co/image/f6&quot; rel=&quot;nofollow&quot; target=&quot;_NEW&quot;&gt;\nhttp://imgsparrow.co/image/f6&lt;/a&gt; &lt;a href=&quot;\nhttp://imgsparrow.co/image/f8&quot; rel=&quot;nofollow&quot; target=&quot;_NEW&quot;&gt;\nhttp://imgsparrow.co/image/f8&lt;/a&gt; &lt;a href=&quot;\nhttp://imgsparrow.co/image/f9&quot; rel=&quot;nofollow&quot; target=&quot;_NEW&quot;&gt;\nhttp://imgsparrow.co/image/f9&lt;/a&gt; &lt;a href=&quot;\nhttp://imgsparrow.co/image/fL&quot; rel=&quot;nofollow&quot; target=&quot;_NEW&quot;&gt;\nhttp://imgsparrow.co/image/fL&lt;/a&gt; &lt;a href=&quot;\nhttp://imgsparrow.co/image/fN&quot; rel=&quot;nofollow&quot; target=&quot;_NEW&quot;&gt;\nhttp://imgsparrow.co/image/fN&lt;/a&gt; &lt;a href=&quot;\nhttp://imgsparrow.co/image/ft&quot; rel=&quot;nofollow&quot; target=&quot;_NEW&quot;&gt;\nhttp://imgsparrow.co/image/ft&lt;/a&gt; &lt;a href=&quot;\nhttp://imgsparrow.co/image/fE&quot; rel=&quot;nofollow&quot; target=&quot;_NEW&quot;&gt;\nhttp://imgsparrow.co/image/fE&lt;/a&gt;\n &lt;a href=&quot;\nhttp://imgsparrow.co/image/N2&quot; rel=&quot;nofollow&quot; target=&quot;_NEW&quot;&gt;\nhttp://imgsparrow.co/image/N2&lt;/a&gt;","torrent":{"xt":"urn:btih:e9d95196fd2211f86a9773055a309aa0fae73da7","amp;dn":"Yevadu+%282014%29+Hindi+Dubbed+-+1CD+-+HDRip+-+x264+-+MP3+-%3D%7BSPARROW","amp;tr":["udp%3A%2F%2Ftracker.openbittorrent.com%3A80","udp%3A%2F%2Fopen.demonii.com%3A1337","udp%3A%2F%2Ftracker.coppersurfer.tk%3A6969","udp%3A%2F%2Fexodus.desync.com%3A6969"],"infoHash":"e9d95196fd2211f86a9773055a309aa0fae73da7","infoHashBuffer":{"type":"Buffer","data":[233,217,81,150,253,34,17,248,106,151,115,5,90,48,154,160,250,231,61,167]},"announce":[],"urlList":[]}}